<svg width="11" height="11" viewBox="0 0 11 11" fill="none" xmlns="http://www.w3.org/2000/svg">
<path d="M5.25 0.25C5.42405 0.25 5.59097 0.319141 5.71404 0.442211C5.83711 0.565282 5.90625 0.732202 5.90625 0.90625V4.84375H9.84375C10.0178 4.84375 10.1847 4.91289 10.3078 5.03596C10.4309 5.15903 10.5 5.32595 10.5 5.5C10.5 5.67405 10.4309 5.84097 10.3078 5.96404C10.1847 6.08711 10.0178 6.15625 9.84375 6.15625H5.90625V10.0938C5.90625 10.2678 5.83711 10.4347 5.71404 10.5578C5.59097 10.6809 5.42405 10.75 5.25 10.75C5.07595 10.75 4.90903 10.6809 4.78596 10.5578C4.66289 10.4347 4.59375 10.2678 4.59375 10.0938V6.15625H0.65625C0.482202 6.15625 0.315282 6.08711 0.192211 5.96404C0.0691406 5.84097 0 5.67405 0 5.5C0 5.32595 0.0691406 5.15903 0.192211 5.03596C0.315282 4.91289 0.482202 4.84375 0.65625 4.84375H4.59375V0.90625C4.59375 0.732202 4.66289 0.565282 4.78596 0.442211C4.90903 0.319141 5.07595 0.25 5.25 0.25Z" fill="#2D5724"/>
</svg>
